<svg xmlns="http://www.w3.org/2000/svg" viewBox="0 0 303.3 126.57"><defs><style>.cls-1{fill:#fff;}</style></defs><g id="图层_2" data-name="图层 2"><g id="图层_2-2" data-name="图层 2"><path class="cls-1" d="M284.5,74.69a31.68,31.68,0,0,0-24.94-12.12H199.24V21.13H235a5.33,5.33,0,0,0,1.84-.35V29a1.58,1.58,0,0,0,2.41,1.34l21.53-13.4a1.75,1.75,0,0,0,0-3L238.58.18a1.16,1.16,0,0,0-1.78,1V9.42A5.33,5.33,0,0,0,235,9.07H194.64l-.2,0-.2,0a5,5,0,0,0-5,5v48.5H24.05a31.64,31.64,0,0,0-24,11,21,21,0,0,1,20.3,21,21,21,0,0,1-20.3,21,31.67,31.67,0,0,0,24.05,11H259.56a31.62,31.62,0,0,0,23.13-10,21,21,0,0,0,1.81-41.86Z"/></g></g></svg>