<svg width="1403" height="302" xmlns="http://www.w3.org/2000/svg" xmlns:xlink="http://www.w3.org/1999/xlink" xml:space="preserve" overflow="hidden"><g transform="translate(-1769 -1592)"><path d="M1814.93 1595.5 3029.21 1595.5C3052.64 1595.5 3071.64 1614.52 3071.64 1637.98L3071.64 1647.55C3125.13 1647.55 3168.5 1690.97 3168.5 1744.54 3168.5 1798.11 3125.13 1841.53 3071.64 1841.53L3071.64 1848.02C3071.64 1871.48 3052.64 1890.5 3029.21 1890.5L1814.93 1890.5C1791.5 1890.5 1772.5 1871.48 1772.5 1848.02L1772.5 1838.04 1790.31 1836.24C1834.45 1827.2 1867.66 1788.09 1867.66 1741.22 1867.66 1694.35 1834.45 1655.24 1790.31 1646.2L1772.5 1644.4 1772.5 1637.98C1772.5 1614.52 1791.5 1595.5 1814.93 1595.5Z" stroke="#000000" stroke-width="6.875" stroke-miterlimit="8" fill="#FFFFFF" fill-rule="evenodd"/></g></svg>