<svg width="1404" height="658" xmlns="http://www.w3.org/2000/svg" xmlns:xlink="http://www.w3.org/1999/xlink" xml:space="preserve" overflow="hidden"><g transform="translate(-220 -285)"><path d="M764.936 293.5 872.679 401.235 764.936 508.969 764.936 455.102 523.833 455.102 523.833 644.703 1481.11 644.703C1504.56 644.703 1523.57 663.71 1523.57 687.156L1523.57 696.715C1577.1 696.715 1620.5 740.111 1620.5 793.641 1620.5 847.172 1577.1 890.568 1523.57 890.568L1523.57 897.046C1523.57 920.493 1504.56 939.5 1481.11 939.5L265.957 939.5C242.509 939.5 223.5 920.493 223.5 897.046L223.5 687.156C223.5 663.71 242.509 644.703 265.957 644.703L405.752 644.703 405.752 367.205C405.752 356.336 414.563 347.526 425.433 347.526L432.354 347.526 432.354 347.367 764.936 347.367Z" stroke="#000000" stroke-width="6.875" stroke-miterlimit="8" fill="#FFFFFF" fill-rule="evenodd"/></g></svg>